<?xml version="1.0" encoding="utf-8"?>
<!-- Generator: Adobe Illustrator 19.2.1, SVG Export Plug-In . SVG Version: 6.00 Build 0)  -->
<svg version="1.1" id="layer" xmlns="http://www.w3.org/2000/svg" xmlns:xlink="http://www.w3.org/1999/xlink" x="0px" y="0px"
	 viewBox="0 0 652 652" style="enable-background:new 0 0 652 652;" xml:space="preserve">
<style type="text/css">
	.st0{fill:#DCB163;}
</style>
<path class="st0" d="M326.6,293.9c0,0.1,0,2.9,0,3.2c0.1,0,0.9,0,0.9,0h0.2c1.4,0,3.4,0,4.2,0.8c1.2,1.4,0.2,2.6-1.1,4.2
	c-0.3,0.5-0.7,0.9-1.1,1.4c-1.7,2.1-1.7,4-1,4.5c0.3,0.3,1,0.3,1.6,0l0.3-0.2c1.1-0.9,3.2-2.4,4.2-2.8c0.9-0.5,1.8-0.3,2.4,0.3
	c0.8,0.9,0.8,2.9-0.8,5c-0.5,0.6-1,1.2-1.6,1.9c-0.8,0.9-1.7,1.8-2.4,2.8c-0.8,1.1-0.9,2.5-0.3,3.1c0.5,0.5,1.2,0.2,2.1-0.6
	c1.2-0.9,2.4-1,2.9-0.3c0.2,0.3,0.5,0.8,0.5,1.2c0,1.2-0.8,2.9-2.1,4.3c-2.5,2.6-4.4,4.9-4.4,7.1c0,0.5,0.1,0.9,0.2,1.4
	c0.3,0.9,1,3.1,1.1,3.5c0,0.1,0.1,0.2,0.1,0.2l-0.1,0.2c0,0-0.1,0-0.3,0l0,0h-2.4l-2.3-6.2c-0.3-0.8-0.7-1.5-2.8-2l-1-0.3h-0.1
	c-0.3-0.1-0.5,0-0.7,0.1c-1.2,0.9-1.4,1-1.4,1l0,0c-1.4,1-2,1.2-2.6,1.1c-0.6-0.1-0.8-0.6-0.8-1.1l0,0v-0.2l0,0l0,0l0,0l0,0l0,0
	c0.6-1,1.1-2,1.5-3.2c0.3-1.1,0.6-2.3,0.6-3.5l0,0l0,0l0,0l0,0l0,0c0,0,0-0.1,0.1-0.1l0,0c0.3-0.6,0.8-0.7,1.4-0.6
	c0.6,0.2,1,0.8,1.6,2.4l0.5,1.1c0.1,0.2,0.1,0.5,0.1,0.5c0.1,0.3,0.2,0.5,0.6,0.6c0,0,0.9,0.2,1.4,0.5l0,0c0.1,0,0.2,0.1,0.2,0.1
	l0.1-0.1c0,0-0.1-0.1-0.1-0.2l0,0c-0.2-0.5-0.5-1.2-0.5-1.2l-0.8-2.1c-0.9-2.4-1.5-3.3-3.2-4.5c-1-0.7-2.4-1.4-3.5-1.9
	c-0.8-0.3-1.5-0.7-2-1c-2-1.1-3.3-2.7-3.3-4.3c0-0.2,0-0.5,0.1-0.7c0.2-0.9,1.1-1.5,2.1-1.5c0.9,0,2.9,0.7,4.7,1.5
	c0.8,0.3,1.4,0.2,1.6-0.2c0.5-0.9-0.3-2.7-2.5-4.3c-3.1-2.3-4.5-3.8-4.6-5.1c-0.1-0.6,0.1-1,0.5-1.5c0.6-0.8,2.3-0.8,3.7-0.8
	c0,0,1,0,1.1,0c0-0.1,0-3.1,0-3.2c-0.1,0-28.4,0-28.6,0c0,0.1,0,1.6,0,1.6s0,1.5,0,1.6c0.7,0,1.2,0,2,0.1l0,0
	c2.5,0.2,4.4,1.4,6.3,6.6c0.5,1.2,16.6,42.3,17.1,43.5c1.2,0,12.2,0,13.7,0c0-0.1,15.9-40.9,17.1-43.7c1.9-5,4.1-6.1,6.6-6.3
	c0.5,0,1.1-0.1,1.7-0.1c0-0.1,0-3.1,0-3.2C355,293.9,326.7,293.9,326.6,293.9z M317.2,327.3l-1.6-0.6c-1.9-0.7-2.7-1.1-2.9-3.2
	c-0.1-0.5-0.1-1.1-0.1-1.1l0,0l0,0l0,0l0,0c0-0.1,0.5-0.6,0.7-0.9c1.2-1.6,2.3-1.6,4.3-1.1l1.7,0.3v0.1c0,1.1-0.2,2.3-0.6,3.4
	C318.3,325.2,318,326.1,317.2,327.3L317.2,327.3z"/>
<path d="M383.2,323.4c0,5.2-1.9,7.5-6.1,7.5c-4.4,0-6.2-1.9-6.2-6.8c0-2.9,0-6,0.1-8.9l0.1-6.2h-0.3h-2.5l-0.1,6.2
	c0,2.9-0.1,6-0.1,8.9c0,6.2,2.7,9,8.7,9c6.2,0,8.9-3.1,9-9.9l0.1-14.2h-2.6L383.2,323.4z"/>
<path d="M415.8,316c0,3.2-0.1,6.4-0.1,9.6l0,0c0,1,0,2.1,0.1,3.2c-0.7-1.1-1.4-2.3-2.3-3.5l-11.2-16.6l-0.2,0.1l-2.6,0.8l-0.2,23.3
	h2.6v-0.3c0-0.1,0.1-11.1,0.1-16.5c0-1,0-2,0-3.1c0.7,1.2,1.5,2.4,2.3,3.5l11.3,16.7l2.7-0.8l0.2-23.4H416L415.8,316z"/>
<polygon points="432.6,309 432.4,332.8 435.2,332.8 435.4,309 435,309 "/>
<path d="M465.3,308.9l-7.3,18.4c-0.2,0.7-0.5,1.4-0.7,1.9c-0.2-0.7-0.5-1.4-0.7-1.9l-7.2-18.8l-2.7,0.9l9.2,23.4h2.5l9.6-23.3
	l-2.5-0.9L465.3,308.9z"/>
<path d="M479.2,309l-0.2,23.7h13v-2.4c0,0-9.6,0-10.2,0c0-0.6,0-8,0.1-8.6c0.6,0,10.1,0,10.1,0v-2.4c0,0-9.5,0-10.1,0
	c0-0.6,0-7.5,0.1-7.9c0.6,0,10.1,0,10.1,0v-2.4h-0.3h-12.5V309z"/>
<path d="M540.2,310.9c1.9,0,3.3,0.3,5,1.2l0.2,0.1l1.4-2.1l-0.2-0.1c-1.9-1-3.7-1.4-6.4-1.4c-3.5,0-7,2.1-7,6.2
	c0,4.2,3.1,5.5,5.9,6.9c2.4,1.1,4.7,2.3,4.7,5c0,2.5-1.8,4.1-4.6,4.1c-1.9,0-3.8-0.5-5.3-1.4l-0.2-0.1l-1.4,2.1l0.2,0.1
	c1.5,1,4.5,1.6,6.6,1.6c4.6,0,7.7-2.6,7.7-6.7c0-4.3-3.3-5.8-6.1-7.1c-2.4-1.1-4.4-2.1-4.4-4.4C536,312.6,537.7,310.9,540.2,310.9z"
	/>
<polygon points="560.3,309 560.1,332.8 562.8,332.8 563,309 562.7,309 "/>
<path d="M575.5,309v2.5c0,0,6.8,0,7.3,0c0,0.6-0.1,21.4-0.1,21.4h2.7c0,0,0.1-20.8,0.1-21.4c0.6,0,7.3,0,7.3,0V309h-0.3
	C592.5,309,575.5,309,575.5,309z"/>
<path d="M618.3,308.5l-5.9,8.2c-0.5,0.7-1.2,1.9-1.7,2.5c-0.3-0.6-0.9-1.5-1.5-2.3l-5.9-8.6l-0.2,0.1l-2.1,1.1c0,0,8.2,12,8.2,12.2
	s-0.1,10.8-0.1,10.8h2.7c0,0,0.1-11,0.1-11.2c0.1-0.1,8.6-11.9,8.6-11.9L618.3,308.5z"/>
<path d="M515.8,322.9L515.8,322.9c-0.5-0.6-0.8-0.9-1.2-1.2c2.9-0.7,5.9-3.2,5.9-6.6c0-4.1-2.7-6.3-7.8-6.3c-1.7,0-3.3,0.1-5,0.1
	l-1.6,0.1v0.2l-0.2,23.5h2.7c0,0,0.1-10.1,0.1-10.6c0.5,0,1.5,0,1.5,0l0,0c1.1,0,2,0.3,2.6,1.1c0.5,0.6,6.9,9.6,7,9.7l0.1,0.2
	l2.5-1.1l-0.2-0.3C522.3,331.6,516,323.2,515.8,322.9z M517.6,315.3c0,3.3-2.8,4.5-5.3,4.6h-1.7c0,0-1.5,0-1.9,0
	c0-0.6,0.1-8.2,0.1-8.8c1.2-0.1,2.5-0.1,3.8-0.1C515.9,311,517.6,312.5,517.6,315.3z M510.2,322.2L510.2,322.2L510.2,322.2z"/>
<path d="M44.8,309.1h-1.2h-0.3h-0.1c-0.5,0-1,0.1-1.5,0.1c-0.7,0-1.4,0-2-0.1h-0.1c-0.8,0-1.2-0.1-1.8-0.1h-0.2v1.6h0.9
	c1.6,0,1.8,0.3,1.8,0.8c0,0.3-0.1,0.9-0.5,1.8c-0.2,0.5-4.3,10.8-5.2,13.3c-1-2.6-5.4-13.8-5.6-14.2s-0.2-0.9-0.2-1
	c0-0.2,0.3-0.7,1.5-0.7h1V309h-0.2h-1.5H29h-0.5c-0.9,0-1.8,0.1-2.6,0.1c-0.9,0-1.7,0-2.6-0.1c-0.8,0-1.7-0.1-2.6-0.1h-0.2v1.6h0.6
	c1.2,0,1.9,0.2,2.5,1.7l8.7,21h1.6L34,333c0.2-0.6,1.4-3.2,3.5-8.4c1.7-4.2,5.3-13,5.5-13.3c0.5-0.9,1-1,1.6-1h0.6v-1.6L44.8,309.1
	L44.8,309.1L44.8,309.1z"/>
<path d="M66.6,330.2c-0.3-0.8-0.7-1.8-1-2.7l-0.2-0.7c0,0,0,0,0,0.1c0-0.1-0.5-1.4-6-16.9l-0.3-0.8c-0.1-0.2-0.2-0.2-0.5-0.2h-0.1
	h-0.1h-0.3l-0.8,0.1l0,0c-0.5,0-0.8,0-1.6,0h-0.2v0.2c-0.2,0.8-0.7,2-1.1,3.2l-0.2,0.5l-0.5,1.2l-5.3,15.4c-0.5,1.2-1.5,2-2.6,2
	h-0.5v1.6h0.3h0.5c1,0,2.1-0.1,3.2-0.1c1.1,0,2.4,0,3.5,0.1h0.6h0.3v-1.6H53c-0.7,0-2.3-0.1-2.3-0.9c0-0.3,0.2-0.9,0.3-1.5l0.3-1
	c0,0,0.8-2.6,1-3.3c0.3,0,6.9,0,7.1,0c0.1,0.3,1.2,3.7,1.2,3.7c0.3,0.9,0.7,1.9,0.7,2.3c0,0.7-1.2,0.7-1.6,0.7H59v1.6h0.8
	c1.4,0,2.8-0.1,4.3-0.1c1.4,0,2.7,0,4.1,0.1h0.5h0.3v-1.6h-0.5C67.5,331.3,67,331,66.6,330.2z M58.5,322.2c-0.6,0-5,0-5.4,0
	c0.5-1.4,2.1-6.4,2.7-8.4C56,314.5,58.3,321.6,58.5,322.2z"/>
<path d="M98,309.1h-0.2c-0.7,0-1.4,0.1-2,0.1c-0.8,0-1.6,0-2.4-0.1c-0.7,0-1.6-0.1-2.4-0.1h-0.2v1.6h0.9c0.9,0,2.5,0.3,2.5,2.8
	c0,0.1,0.1,9.4,0.1,11.9c-2.4-2.6-14.3-16.2-14.5-16.3l-0.1-0.1h-0.1c-0.6,0-1,0-1.5,0.1h-0.2h-1.2h-1.6h-0.2c-0.6,0-1.1,0-1.8,0
	h-0.3v1.5h0.7c0.7,0,1.2,0.2,1.7,0.8c0.6,0.6,0.8,1.2,0.8,2l-0.1,14c0,2.5-0.5,4-2.5,4h-0.8v1.5h0.3c0.8,0,1.5,0,2.1,0h0.1
	c0.9,0,1.6-0.1,2.3-0.1c0.6,0,1.2,0,2.1,0.1l0,0h2.1H82v-1.6h-0.9c-2.1,0-2.7-0.8-2.7-3.6c0,0-0.1-10.4-0.1-13
	c0.9,1,16.8,18.9,16.8,18.9h1.7V333c-0.2-1.1-0.2-2.3-0.2-3.3l0.1-15.1c0-4,1.5-4,2.5-4h0.8v-1.5h-0.2L98,309.1z"/>
<path d="M126.6,312.2L126.6,312.2c-2.4-2.1-5.9-3.3-9.9-3.3h-2h-0.1c-1,0-2,0.1-3.2,0.1c-1.2,0-2.5,0-3.6-0.1h-0.7H106h-0.3v1.6h0.8
	c1.4,0,2.1,0.2,2.1,1.6v17.5c0,1.5-0.9,1.7-2,1.7h-0.8v1.5h0.2h1.5h0.3c1,0,2.3-0.1,3.4-0.1c2.7,0,5.3,0.1,6.1,0.1
	c3.3,0.2,6.4-0.9,8.9-3.3c2.4-2.3,3.8-5.4,3.8-8.8C130.2,317.3,129,314.4,126.6,312.2z M125.1,321.5c0,2.6-0.8,4.9-2.1,6.6
	c-1.5,1.8-3.6,2.7-6.2,2.7c-2.3,0-3.2-0.2-3.2-2.4c0,0,0-16.8,0-17.3c0.1,0,0.2,0,0.2,0c0.6-0.1,1.1-0.1,1.7-0.1
	c3.1,0,5.2,0.7,6.7,2C124.1,314.7,125.1,317.5,125.1,321.5z"/>
<path d="M153.6,327.2c-0.5,1.8-1,2.7-1.9,3.2c-0.9,0.5-2.1,0.5-4.1,0.5h-0.1c-2.4,0-3.8-0.1-3.8-1.9c0,0,0-6.9,0-7.3
	c0.5,0,3.8,0,3.8,0c2,0,2.1,0.8,2.4,2.8v0.3l1.5-0.3v-0.2c-0.1-1.4-0.1-2.4-0.1-3.6s0-2.3,0.1-3.5v-0.3h-1.5v0.2
	c-0.2,1.8-0.8,2.3-2.5,2.3c0,0-3.4,0-3.8,0c0-0.5,0-7.6,0-8c0.5,0,4.4,0,4.4,0c3.3,0,3.6,1.1,3.7,3.2v0.3l1.5-0.3V314
	c-0.1-1.4,0-3.1,0.1-4.4v-0.8h-0.2l0,0c-1,0-2.4,0-3.8,0.1h-0.3c-1.5,0-3.1,0.1-4.4,0.1c-1.6,0-3.4,0-4.7-0.1
	c-1.6,0-2.7-0.1-3.5-0.1h-0.3v1.6h0.8c1.4,0,2.1,0.2,2.1,1.6v17.5c0,1.5-0.7,1.7-1.9,1.7h-0.8v1.5h0.2h3.4c1.7,0,3.6-0.1,5.2-0.1
	s3.5,0,5.1,0.1h0.3h3.4h0.2v-0.2l0.2-1.8c0.1-1.1,0.3-2.1,0.6-3.4l0.1-0.2l-1.5-0.3L153.6,327.2z"/>
<path d="M203.8,319.8c2.4-0.7,4.6-2.1,4.6-5.3c0-1.7-0.6-2.9-1.8-4c-1.4-1-3.4-1.6-6.1-1.6c-0.7,0-1.5,0-2.4,0.1H198
	c-0.9,0-1.8,0.1-2.8,0.1c-0.9,0-1.8,0-2.7-0.1h-0.1c-1,0-1.7-0.1-2.3-0.1h-0.2v1.6h0.8c1.4,0,2.1,0.2,2.1,1.6v17.5
	c0,1.4-0.8,1.6-2.1,1.6h-0.8v1.6h0.2h2.3h0.2c1.1,0,2.4-0.1,3.5-0.1s2.3,0,3.3,0.1h2.6c2.1,0,4.2-0.7,5.8-2c1.6-1.4,2.4-3.1,2.4-4.9
	c0-1.6-0.6-3.1-1.7-4.2C207.1,320.8,205.5,320.1,203.8,319.8z M198.8,319.1c0,0-0.9,0-1.4,0c0-0.5,0-7.7,0-8.1c0.3,0,1.7,0,1.7,0
	c2,0,4.2,0.5,4.2,4.2C203.3,317.9,201.9,319.1,198.8,319.1z M204.8,326.1c0,2.8-1.9,4.7-4.6,4.7c-2.4,0-2.7-0.3-2.7-2.6
	c0,0,0-6.9,0-7.3c0.3,0,1.8,0,1.8,0c1.7,0,3.1,0.5,4,1.2C204.4,323.2,204.8,324.4,204.8,326.1z"/>
<path d="M227.1,309.1h-1.9h-0.6h-0.2c-0.8,0-1.7,0.1-2.5,0.1c-0.8,0-1.7,0-2.6-0.1H219c-1,0-1.7-0.1-2.3-0.1h-0.3v1.6h0.8
	c1.4,0,2.1,0.2,2.1,1.6v17.5c0,1.4-0.8,1.6-2.1,1.6h-0.8v1.6h0.3h2.1c0.8,0,1.8-0.1,2.7-0.1c0.8,0,1.8,0,2.6,0.1h0.1h2.5h0.3v-1.6
	h-0.8c-1.4,0-2.1-0.2-2.1-1.6v-17.4c0-1.4,0.8-1.6,2.1-1.6h0.8v-1.6H227.1L227.1,309.1L227.1,309.1z"/>
<path d="M252.5,326.9c-0.2,0.8-0.5,1.4-0.9,2c-0.6,0.9-1.7,1.5-2.9,1.6c-1.4,0.1-2.5,0.2-4,0.1c-1.2-0.1-1.7-0.7-1.7-1.6v-16.9
	c0-1.5,0.8-1.5,2-1.5h1.1v-1.6h-0.2l0,0c-0.8,0-1.7,0-2.5,0.1h-0.1c-0.8,0-1.7,0.1-2.5,0.1c-0.9,0-1.8,0-2.6-0.1
	c-0.8,0-1.7-0.1-2.6-0.1h-0.5v1.6h0.8c1.4,0,2.3,0.2,2.3,1.6v17.2c0,1.8-1,1.9-2.3,1.9h-0.8v1.6h0.3h4.3h0.1c1.7,0,3.2-0.1,4.4-0.1
	c1.2,0,2.6,0,4.2,0.1h0.1c1.4,0,2.7,0,4.1,0h0.2v-0.2c0.2-1.2,0.5-2.4,0.7-3.6l0.5-2.3h-1.5L252.5,326.9z"/>
<path d="M181.8,329.5l-4.3-5.9c-0.7-0.9-1.4-1.6-1.9-1.9c2.3-1,4.7-3.3,4.7-6.4c0-2.3-0.9-4-2.5-5c-1.4-0.8-3.3-1.2-5.6-1.2h-2h-0.6
	h-0.1c-0.9,0-1.7,0.1-2.7,0.1c-1.1,0-2.3,0-3.4-0.1H163h-1.5h-0.2v1.6h0.9c1.1,0,2,0.1,2,2.3v16.9c0,1.5-1.5,1.6-1.9,1.6h-0.9v1.5
	h0.3c0.8,0,1.6,0,2.4-0.1c0.7,0,1.5-0.1,2.3-0.1s1.7,0,2.8,0.1h0.1h2.8h0.3v-1.6h-0.9c-1.5,0-2.5-0.1-2.5-2.4c0,0,0-6,0-6.3
	c0.3,0,1.5,0,1.5,0c0.5,0,0.8,0.1,1.1,0.7c0.8,1.2,2.7,4.1,5.5,7.8c1.4,1.8,3.1,1.8,4.3,1.8h3.7v-1.5H185
	C183.5,331.2,182.9,331.1,181.8,329.5z M175.3,315.5c0,1.8-0.5,3.1-1.2,4c-0.8,0.8-1.9,1.1-3.5,1.1c0,0-1.1-0.1-1.4-0.1
	c0-0.5,0-9,0-9.4c0.1,0,0.2,0,0.2,0c0.3,0,0.8-0.1,1.5-0.1C173.6,311,175.3,312.7,175.3,315.5z"/>
<path d="M277.2,309l-0.8,0.1h-0.1h-1.5h-16c-0.8,0-1.2,0-1.8-0.1h-0.1l0,0l-1.2-0.1v0.2v0.1c0,0.8,0,1.1-0.1,2v0.2v0.3l-0.3,2.5v0.2
	h1.6l0.1-0.2c0.5-2.5,0.6-2.8,2.8-2.8c0,0,4.1,0,4.5,0c0,0.5,0,17.4,0,17.4c0,2.4-0.8,2.5-2.5,2.5h-0.9v1.6h0.2h2.3
	c1,0,2.3-0.1,3.4-0.1c0.9,0,2,0,3.1,0.1h0.1h2.3h0.2v-1.6h-1c-1.5,0-2.5-0.2-2.5-2.6c0,0,0-16.8,0-17.3c0.5,0,4.6,0,4.6,0
	c2,0,2.1,1.8,2.3,2.8v0.3l1.6-0.3V314v-2.7c0-0.9,0.1-1.7,0.1-2V309H277.2L277.2,309z"/>
</svg>
